Coordinates																	
version=1																	
nRows=50																	
nColumns=18																	
inDegrees=yes																	
																	
"Units are S.I. units (second, meters, Newtons, ...)"																	
Angles are in degrees.																	
																	
endheader																	
time	ground_thorax_rot_x	ground_thorax_rot_y	ground_thorax_rot_z	ground_thorax_tx	ground_thorax_ty	ground_thorax_tz	clav_prot	clav_elev	scapula_abduction	scapula_elevation	scapula_upward_rot	scapula_winging	plane_elv	shoulder_elv	axial_rot	elbow_flexion	pro_sup
0.87	0.557623296	-1.867242411	-9.573534081	-0.00423131	0.00403036	-0.00078352	-33.65058449	3.59096508	-15.58630404	-4.300244826	39.07508308	-4.700266072	-5.308930624	56.05364494	7.456175804	0	34.32
0.88	0.575469512	-1.858395706	-9.574178057	-0.00423131	0.00403036	-0.00078352	-33.74418679	3.717897498	-15.56093455	-4.256903082	39.36159044	-4.821791351	-5.201414988	56.269649	7.634320166	0	34.32
0.89	0.58813971	-1.850534321	-9.57676112	-0.00423131	0.00403036	-0.00078352	-33.83635636	3.840813557	-15.53947423	-4.214512078	39.63779287	-4.93958559	-5.086926246	56.47604409	7.836868728	0	34.32
0.9	0.595122026	-1.84371642	-9.581386122	-0.00423131	0.00403036	-0.00078352	-33.92740467	3.958620503	-15.52145999	-4.173976722	39.90449944	-5.053486709	-4.965050311	56.67403371	8.057836709	0	34.32
0.91	0.596328235	-1.838176804	-9.587873102	-0.00423131	0.00403036	-0.00078352	-34.01732042	4.070566227	-15.50526875	-4.136067205	40.16347945	-5.163501986	-4.836570544	56.86553227	8.29316444	0	34.32
0.92	0.592078494	-1.834228425	-9.595735758	-0.00423131	0.00403036	-0.00078352	-34.10580983	4.176368016	-15.4883849	-4.101299586	40.41725481	-5.269824023	-4.703350596	57.05297235	8.540129857	0	34.32
0.93	0.583061491	-1.832149894	-9.604201761	-0.00423131	0.00403036	-0.00078352	-34.19239065	4.276288582	-15.46779328	-4.069849045	40.66882199	-5.372836774	-4.568080791	57.23907185	8.796497772	0	34.32
0.94	0.570274045	-1.832077985	-9.612280149	-0.00423131	0.00403036	-0.00078352	-34.27652353	4.37114271	-15.44044242	-4.041511072	40.92133402	-5.473107306	-4.43391676	57.42658559	9.05960046	0	34.32
0.95	0.554943138	-1.833922362	-9.61887216	-0.00423131	0.00403036	-0.00078352	-34.35775948	4.462228266	-15.4037174	-4.015717953	41.17777322	-5.571360185	-4.304051269	57.61806636	9.325537105	0	34.32
0.96	0.538433008	-1.837316051	-9.62291447	-0.00423131	0.00403036	-0.00078352	-34.43588004	4.551186993	-15.35586254	-3.991608936	41.44064422	-5.668433329	-4.181269313	57.81565769	9.58864613	0	34.32
0.97	0.522140645	-1.841610253	-9.623537204	-0.00423131	0.00403036	-0.00078352	-34.51100695	4.639811346	-15.29630072	-3.968144152	41.71171405	-5.765216545	-4.067541296	58.02093713	9.84135216	0	34.32
0.98	0.507384818	-1.845916367	-9.620214441	-0.00423131	0.00403036	-0.00078352	-34.58366193	4.729821964	-15.22580749	-3.944245844	41.99182206	-5.862576477	-3.96370797	58.23482325	10.07442639	0	34.32
0.99	0.49529605	-1.849191979	-9.612883308	-0.00423131	0.00403036	-0.00078352	-34.65476354	4.822645405	-15.14651439	-3.918946503	42.28077718	-5.961274213	-3.869302284	58.45755313	10.27763314	0	34.32
1	0.48671737	-1.850361755	-9.602009992	-0.00423131	0.00403036	-0.00078352	-34.72555685	4.919223031	-15.06173574	-3.891522345	42.57735405	-6.061884017	-3.782537377	58.68872975	10.44067464	0	34.32
1.01	0.482127306	-1.84845925	-9.588587032	-0.00423131	0.00403036	-0.00078352	-34.79748194	5.01987916	-14.97563427	-3.861592303	42.87939159	-6.164723158	-3.700468269	58.92743107	10.55429994	0	34.32
1.02	0.481596595	-1.842772247	-9.574055605	-0.00423131	0.00403036	-0.00078352	-34.87199675	5.124269703	-14.89276229	-3.829167374	43.18398903	-6.269803053	-3.619310688	59.17236511	10.61142023	0	34.32
1.03	0.484787794	-1.832972639	-9.56015771	-0.00423131	0.00403036	-0.00078352	-34.95037774	5.231421592	-14.81753128	-3.794642433	43.48778436	-6.376810327	-3.53487806	59.42205006	10.60807683	0	34.32
1.04	0.491001981	-1.819212287	-9.548734424	-0.00423131	0.00403036	-0.00078352	-35.03352673	5.339859508	-14.75367473	-3.75873184	43.78729029	-6.485122972	-3.443080767	59.67499486	10.54413689	0	34.32
1.05	0.499269751	-1.802168762	-9.541495797	-0.00423131	0.00403036	-0.00078352	-35.12181251	5.447801804	-14.7037714	-3.722359794	44.079254	-6.59386192	-3.3404232	59.92985629	10.4236366	0	34.32
1.06	0.508476132	-1.783029494	-9.539793744	-0.00423131	0.00403036	-0.00078352	-35.21497295	5.553395216	-14.66889159	-3.686524453	44.36100163	-6.701973063	-3.224434811	60.18555219	10.25474007	0	34.32
1.07	0.5175026	-1.763409612	-9.544430402	-0.00423131	0.00403036	-0.00078352	-35.31209538	5.654950818	-14.64841466	-3.652159491	44.63072729	-6.808330157	-3.093980752	60.44131765	10.04932335	0	34.32
1.08	0.525365841	-1.745207109	-9.555530555	-0.00423131	0.00403036	-0.00078352	-35.41168318	5.751143755	-14.64004655	-3.620016661	44.88769112	-6.911846147	-2.949413604	60.69670004	9.822222941	0	34.32
1.09	0.531332874	-1.73040793	-9.572498354	-0.00423131	0.00403036	-0.00078352	-35.51180447	5.84114675	-14.64004111	-3.590588	45.13230046	-7.011579676	-2.792547618	60.95149789	9.590206353	0	34.32
1.1	0.53499598	-1.720861745	-9.594066893	-0.00423131	0.00403036	-0.00078352	-35.6103074	5.924680628	-14.64360461	-3.564077702	45.36606179	-7.106824933	-2.626458055	61.20565725	9.370735652	0	34.32
1.11	0.536297492	-1.718055029	-9.618435972	-0.00423131	0.00403036	-0.00078352	-35.70507674	6.001981097	-14.64543926	-3.540423367	45.59140695	-7.19717601	-2.455128402	61.45914509	9.180607145	0	34.32
1.12	0.535502818	-1.722910389	-9.643480512	-0.00423131	0.00403036	-0.00078352	-35.79430001	6.073696353	-14.64036399	-3.519356667	45.81141302	-7.282560871	-2.282985592	61.71182255	9.034565582	0	34.32
1.13	0.533128424	-1.735639191	-9.667001653	-0.00423131	0.00403036	-0.00078352	-35.87670899	6.140741601	-14.62393974	-3.500486429	46.02944899	-7.363244067	-2.11437633	61.9633409	8.944007041	0	34.32
1.14	0.52983848	-1.755668536	-9.686986247	-0.00423131	0.00403036	-0.00078352	-35.95176502	6.20414232	-14.59302445	-3.483383993	46.24879161	-7.439800825	-1.953044789	62.21307923	8.915895864	0	34.32
1.15	0.526328346	-1.781654267	-9.701839344	-0.00423131	0.00403036	-0.00078352	-36.01976253	6.264897423	-14.54619054	-3.467651768	46.4722568	-7.513067692	-1.801672357	62.46013725	8.952020032	0	34.32
1.16	0.523214515	-1.81158055	-9.710558607	-0.00423131	0.00403036	-0.00078352	-36.08183565	6.323886812	-14.48395314	-3.452960722	46.70188999	-7.584076193	-1.661533608	62.70338798	9.04869001	0	34.32
1.17	0.52094875	-1.842935515	-9.712828676	-0.00423131	0.00403036	-0.00078352	-36.13986401	6.381836502	-14.40877963	-3.439050263	46.93875003	-7.65397601	-1.532310067	62.94158747	9.196946005	0	34.32
1.18	0.519769386	-1.872943361	-9.709025722	-0.00423131	0.00403036	-0.00078352	-36.19628575	6.439340507	-14.32487558	-3.425693111	47.18280864	-7.72395298	-1.412086342	63.17353118	9.383281152	0	34.32
1.19	0.519695723	-1.898827465	-9.700135703	-0.00423131	0.00403036	-0.00078352	-36.25383662	6.496924631	-14.23776684	-3.412636803	47.43297139	-7.795145417	-1.297533598	63.39824113	9.590822362	0	34.32
1.2	0.520563458	-1.918076759	-9.68760193	-0.00423131	0.00403036	-0.00078352	-36.31524195	6.555126116	-14.15371969	-3.399540442	47.6872115	-7.868560598	-1.184264828	63.61516337	9.800848949	0	34.32
1.21	0.522091696	-1.9286885	-9.673126548	-0.00423131	0.00403036	-0.00078352	-36.38289476	6.614557916	-14.07905877	-3.385928311	47.94279513	-7.944992787	-1.067326284	63.8243517	9.994484582	0	34.32
1.22	0.523966832	-1.929363533	-9.658455245	-0.00423131	0.00403036	-0.00078352	-36.45855666	6.67592895	-14.01945627	-3.371179844	48.19656825	-8.02494556	-0.941771419	64.02661054	10.15437928	0	34.32
1.23	0.525926492	-1.919634631	-9.645174583	-0.00423131	0.00403036	-0.00078352	-36.54311842	6.740002286	-13.97927301	-3.354568084	48.44527189	-8.108564141	-0.803249945	64.2235681	10.26620687	0	34.32
1.24	0.527827902	-1.89991393	-9.634547172	-0.00423131	0.00403036	-0.00078352	-36.63645394	6.807489526	-13.96103215	-3.335347499	48.68585268	-8.195587004	-0.648537677	64.41765322	10.31983466	0	34.32
1.25	0.529689069	-1.871452261	-9.627402582	-0.00423131	0.00403036	-0.00078352	-36.73739305	6.878897896	-13.96509679	-3.312879378	48.91573924	-8.285328398	-0.475935267	64.61195627	10.31006627	0	34.32
1.26	0.531696787	-1.836211491	-9.624092681	-0.00423131	0.00403036	-0.00078352	-36.8438255	6.954362047	-13.98960224	-3.286772013	49.13306044	-8.376703208	-0.285477007	64.80996848	10.2369077	0	34.32
1.27	0.534181589	-1.796660608	-9.624510605	-0.00423131	0.00403036	-0.00078352	-36.95293148	7.03350138	-14.03066423	-3.257006183	49.33678822	-8.468301793	-0.078914114	65.01521259	10.10535328	0	34.32
1.28	0.537565182	-1.755516245	-9.628164054	-0.00423131	0.00403036	-0.00078352	-37.06151523	7.11534327	-14.08284696	-3.224016024	49.52679532	-8.558515328	0.140532368	65.23079933	9.924731005	0	34.32
1.29	0.542289869	-1.715456915	-9.634287288	-0.00423131	0.00403036	-0.00078352	-37.16640105	7.198342678	-14.13983753	-3.188701454	49.70382577	-8.645703035	0.368620255	65.4589636	9.707683882	0	34.32
1.3	0.548741555	-1.678845565	-9.641972715	-0.00423131	0.00403036	-0.00078352	-37.26483838	7.280511042	-14.19524004	-3.152360027	49.86938425	-8.728383329	0.600676493	65.70064747	9.468894977	0	34.32
1.31	0.55717821	-1.647495663	-9.650302432	-0.00423131	0.00403036	-0.00078352	-37.35485832	7.359645748	-14.24338122	-3.116541076	50.0255576	-8.805423624	0.832245533	65.95520033	9.223687025	0	34.32
1.32	0.567674391	-1.622511456	-9.658462286	-0.00423131	0.00403036	-0.00078352	-37.43552742	7.433630193	-14.28001336	-3.082840328	50.17478875	-8.876200113	1.059700773	66.22025783	8.986638955	0	34.32
1.33	0.580089917	-1.60422346	-9.665825445	-0.00423131	0.00403036	-0.00078352	-37.50705875	7.500757968	-14.30281134	-3.052665797	50.31962866	-8.940700418	1.280726793	66.49184123	8.770359002	0	34.32
1.34	0.594067496	-1.592227055	-9.671998172	-0.00423131	0.00403036	-0.00078352	-37.57075978	7.560026385	-14.3115885	-3.027013161	50.46249491	-8.999548842	1.494597455	66.76468906	8.584534805	0	34.32
1.35	0.609060227	-1.585516895	-9.676826901	-0.00423131	0.00403036	-0.00078352	-37.62882238	7.611346362	-14.30819741	-3.006289417	50.60546568	-9.053945128	1.702204987	67.03279826	8.435345682	0	34.32
1.36	0.624385808	-1.58269514	-9.68037154	-0.00423131	0.00403036	-0.00078352	-37.68398479	7.655627627	-14.29612964	-2.990216993	50.75013355	-9.105521435	1.90583353	67.29011746	8.325275026	0	34.32
